<svg xmlns="http://www.w3.org/2000/svg" xmlns:xlink="http://www.w3.org/1999/xlink" width="16" height="16" viewBox="0 0 16 16">
  <defs>
    <clipPath id="clip-path">
      <rect id="Rectangle_17934" data-name="Rectangle 17934" width="16" height="16" fill="#8a8f93"/>
    </clipPath>
  </defs>
  <g id="Mask_Group_280" data-name="Mask Group 280" clip-path="url(#clip-path)">
    <path id="icons8_bathtub" d="M1.9,0A1.876,1.876,0,0,1,3.556.951c-.024,0-.046,0-.069,0a2.209,2.209,0,0,0-.644.1A1.269,1.269,0,0,0,.634,1.9v4.12H0V1.9A1.882,1.882,0,0,1,1.9,0ZM3.486,1.585A1.586,1.586,0,0,1,5.071,3.17a.317.317,0,0,1-.317.317H2.219A.317.317,0,0,1,1.9,3.17,1.586,1.586,0,0,1,3.486,1.585ZM4.437,3.8a.317.317,0,1,1-.317.317A.318.318,0,0,1,4.437,3.8Zm-.951,0a.317.317,0,1,1-.317.317A.318.318,0,0,1,3.486,3.8Zm-.951,0a.317.317,0,1,1-.317.317A.318.318,0,0,1,2.536,3.8Zm2.219.951a.317.317,0,1,1-.317.317A.318.318,0,0,1,4.754,4.754Zm-1.268,0a.317.317,0,1,1-.317.317A.318.318,0,0,1,3.486,4.754Zm-1.268,0a.317.317,0,1,1-.317.317A.318.318,0,0,1,2.219,4.754Zm2.853.951a.317.317,0,1,1-.317.317A.318.318,0,0,1,5.071,5.705Zm-1.585,0a.317.317,0,1,1-.317.317A.318.318,0,0,1,3.486,5.705Zm-1.585,0a.317.317,0,1,1-.317.317A.318.318,0,0,1,1.9,5.705Zm13.629.951a.318.318,0,0,1,.317.317v.634a.317.317,0,0,1-.317.317H.317A.316.316,0,0,1,0,7.607V6.973a.317.317,0,0,1,.317-.317Zm0,1.9a.62.62,0,0,0-.634.634v1.585a3.487,3.487,0,0,1-2.516,3.348A.6.6,0,0,0,13,14.58a.317.317,0,1,1,0,.634,1.263,1.263,0,0,1-1.228-.971,3.4,3.4,0,0,1-.357.02H4.437a3.4,3.4,0,0,1-.357-.02,1.263,1.263,0,0,1-1.228.971.317.317,0,1,1,0-.634.6.6,0,0,0,.614-.456A3.487,3.487,0,0,1,.951,10.776V9.192a.62.62,0,0,0-.634-.634Z" transform="translate(0 0.546)" fill="#8a8f93"/>
  </g>
</svg>
