<svg xmlns="http://www.w3.org/2000/svg" xmlns:xlink="http://www.w3.org/1999/xlink" width="16" height="16" viewBox="0 0 16 16">
  <defs>
    <clipPath id="clip-path">
      <rect id="Rectangle_17914" data-name="Rectangle 17914" width="16" height="16" fill="#8a8f93" stroke="#707070" stroke-width="1"/>
    </clipPath>
  </defs>
  <g id="Mask_Group_274" data-name="Mask Group 274" clip-path="url(#clip-path)">
    <path id="icons8_empty_bed_2" d="M.951,2.88A.956.956,0,0,0,0,3.831v9.509H1.9V11.755H13.946v1.585h1.9V8.585A1.591,1.591,0,0,0,14.263,7H6.656a.317.317,0,0,0-.317.317V8.9h0a.317.317,0,0,0-.009-.045A3.675,3.675,0,0,0,4.6,6.626a2.8,2.8,0,0,0-1-.253A4.151,4.151,0,0,0,1.9,6.636v-2.8A.956.956,0,0,0,.951,2.88ZM3.565,7.018a2.077,2.077,0,0,1,.769.181A2.687,2.687,0,0,1,5.585,8.73a3.458,3.458,0,0,1-1,.172H4.449A2.1,2.1,0,0,1,3.6,8.69l-.007,0a2.659,2.659,0,0,1-1.249-1.5A3.154,3.154,0,0,1,3.565,7.018Zm3.408.616h7.29a.952.952,0,0,1,.951.951V8.9H6.973ZM1.9,7.8a3.531,3.531,0,0,0,.864,1.1H1.9Z" transform="translate(-0.054 -0.262)" fill="#8a8f93"/>
  </g>
</svg>
