<svg id="surface1" xmlns="http://www.w3.org/2000/svg" width="16" height="16.019" viewBox="0 0 16 16.019">
  <path id="Path_139" data-name="Path 139" d="M13.264.031A2.88,2.88,0,0,0,10.4,2.9a8.7,8.7,0,0,0,.174,1.336c.08.455.155.832.155.832a.475.475,0,1,0,.929-.194s-.08-.358-.155-.794A9.391,9.391,0,0,1,11.366,2.9a1.9,1.9,0,1,1,3.794.213,7.91,7.91,0,0,1-.968,3.775.478.478,0,1,0,.813.5,8.979,8.979,0,0,0,1.1-4.278A2.927,2.927,0,0,0,13.264.031ZM8.192,2.587a2.462,2.462,0,0,0-.852.077L.429,9.575a1.1,1.1,0,0,0,0,1.549l4.607,4.607a1.1,1.1,0,0,0,1.549,0L13.5,8.82c.315-.312.034-3.376-.155-4.956-.111-.924-.114-.934-1.026-1.045-.155-.019-.319-.041-.484-.058a1.3,1.3,0,0,0-.019.136A7.447,7.447,0,0,0,11.928,3.9,1.3,1.3,0,1,1,9.9,4.968a1.312,1.312,0,0,1,.213-.736A9.22,9.22,0,0,1,9.953,2.9c0-.09.012-.181.019-.271C9.3,2.591,8.671,2.579,8.192,2.587Zm.736,4.259.581.581-.523.523a3.036,3.036,0,0,1,.678,1.084l-.852.484a2.672,2.672,0,0,0-.658-1.065c-.387-.387-.685-.341-.852-.174-.191.191-.109.528.213,1.22.465.966.426,1.566-.116,2.11a1.616,1.616,0,0,1-2.168.039l-.619.619-.581-.581L4.61,11.1a3.445,3.445,0,0,1-.774-1.258l.891-.523a2.971,2.971,0,0,0,.716,1.258c.341.339.716.445.949.213s.174-.571-.116-1.162c-.423-.852-.559-1.59.019-2.168a1.551,1.551,0,0,1,2.071-.058Z" transform="translate(-0.109 -0.031)" fill="#8080ff"/>
</svg>
