<svg xmlns="http://www.w3.org/2000/svg" xmlns:xlink="http://www.w3.org/1999/xlink" width="16" height="16" viewBox="0 0 16 16">
  <defs>
    <clipPath id="clip-path">
      <rect id="Rectangle_18457" data-name="Rectangle 18457" width="16" height="16" transform="translate(1424 456)" fill="#8a8f93"/>
    </clipPath>
  </defs>
  <g id="Mask_Group_390" data-name="Mask Group 390" transform="translate(-1424 -456)" clip-path="url(#clip-path)">
    <path id="icons8_google_maps" d="M10.8,6.1c.021,0,.041-.006.062-.006a2.278,2.278,0,0,1,2.255,1.986l2.564-3.035a5.9,5.9,0,0,0-2.209-2.091Zm.062,4.565A2.279,2.279,0,0,1,8.6,8.682l-2.33,2.742c.318.519.671,1.022,1.024,1.518.266.375.526.744.768,1.113l2.871-3.4C10.909,10.66,10.885,10.666,10.858,10.666Zm-2,4.808a5.337,5.337,0,0,1,.43,1.438,1.579,1.579,0,0,0,3.13.013,9.35,9.35,0,0,1,2-3.983c1.319-1.857,2.676-3.777,1.949-6.353Zm.354-9.867L11.941,2.4a5.262,5.262,0,0,0-.744-.1A5.676,5.676,0,0,0,7.143,3.666ZM6.128,4.8A5.731,5.731,0,0,0,5.144,8a5.4,5.4,0,0,0,.382,1.951l2.7-3.181Z" transform="translate(1421.142 453.715)" fill="#8a8f93"/>
  </g>
</svg>
