<svg xmlns="http://www.w3.org/2000/svg" width="12.411" height="12.411" viewBox="0 0 12.411 12.411">
  <path id="icons8_call" d="M4.232,8.987a.67.67,0,0,0,0-.683L3.592,7.237a.668.668,0,0,1,.045-.756A17.368,17.368,0,0,1,4.961,4.961,17.368,17.368,0,0,1,6.481,3.637a.668.668,0,0,1,.757-.045L8.3,4.227a.673.673,0,0,0,.685,0l2.676-1.567a.675.675,0,0,0,.315-.745A2.222,2.222,0,0,0,11.357.882C10.15-.326,8.114-.967,3.574,3.573S-.326,10.15.882,11.357a2.222,2.222,0,0,0,1.039.623.672.672,0,0,0,.742-.313Z" transform="translate(0.419 12.411) rotate(-92)" fill="#2bca7a"/>
</svg>
