<svg xmlns="http://www.w3.org/2000/svg" width="12" height="12" viewBox="0 0 12 12">
  <path id="icons8_compare" d="M1.846,0A1.85,1.85,0,0,0,0,1.846v6A1.85,1.85,0,0,0,1.846,9.692H5.077a1.829,1.829,0,0,0,.361-.043,1.7,1.7,0,0,1-.361.043v.462A1.85,1.85,0,0,0,6.923,12h3.231A1.85,1.85,0,0,0,12,10.154V5.538c0-.49-.261-.7-1.067-1.486-.112-.11-.218-.233-.332-.346s-.236-.22-.346-.332c-.79-.806-1-1.067-1.486-1.067H6.923a1.814,1.814,0,0,0-.433.058c-.159-.169-.357-.35-.635-.62-.112-.11-.218-.233-.332-.346s-.236-.22-.346-.332C4.388.261,4.183,0,3.692,0Zm0,.923H3.591a.5.5,0,0,1,.562.534v.851a.462.462,0,0,0,.462.462H5.5c.49,0,.5.31.5.5v4.9a.978.978,0,0,1-.923.591H1.846a.923.923,0,0,1-.923-.923l.058-6.3A.914.914,0,0,1,1.846.923ZM6.923,3.231H8.668a.5.5,0,0,1,.562.534v.851a.462.462,0,0,0,.462.462h.88c.49,0,.5.31.5.5v4.9a.978.978,0,0,1-.923.591H6.923A.923.923,0,0,1,6,10.154V9.433a1.811,1.811,0,0,0,.88-1.24L8.74,9.606v-1.3h1.385V7.385H8.74v-1.3L6.923,7.471ZM3.2,3.779v1.3H1.817V6H3.2V7.3L5.51,5.538Z" fill="#8080ff"/>
</svg>
