<svg xmlns="http://www.w3.org/2000/svg" xmlns:xlink="http://www.w3.org/1999/xlink" width="16" height="16" viewBox="0 0 16 16">
  <defs>
    <clipPath id="clip-path">
      <rect id="Rectangle_18936" data-name="Rectangle 18936" width="16" height="16" transform="translate(254 714)" fill="#4bbef7" stroke="#707070" stroke-width="1"/>
    </clipPath>
  </defs>
  <g id="Mask_Group_554" data-name="Mask Group 554" transform="translate(-254 -714)" clip-path="url(#clip-path)">
    <path id="icons8_info" d="M8.8.8a8,8,0,1,0,8,8A8,8,0,0,0,8.8.8Zm1.667,12.4c-.413.161-.741.286-.987.37a2.617,2.617,0,0,1-.854.127,1.71,1.71,0,0,1-1.164-.365,1.176,1.176,0,0,1-.413-.926,3.2,3.2,0,0,1,.032-.444,4.935,4.935,0,0,1,.1-.516L7.7,9.63c.045-.175.085-.339.116-.495a2.152,2.152,0,0,0,.045-.429.657.657,0,0,0-.143-.484.812.812,0,0,0-.55-.138,1.513,1.513,0,0,0-.41.061c-.14.042-.259.082-.36.119L6.534,7.7c.336-.138.659-.254.968-.352A2.891,2.891,0,0,1,8.376,7.2a1.67,1.67,0,0,1,1.145.36,1.192,1.192,0,0,1,.4.931c0,.079-.008.22-.026.418a2.861,2.861,0,0,1-.1.55L9.28,11.278c-.042.146-.079.312-.114.5a2.743,2.743,0,0,0-.048.423.613.613,0,0,0,.161.495.9.9,0,0,0,.561.13,1.661,1.661,0,0,0,.423-.064,2.433,2.433,0,0,0,.341-.116Zm-.093-7.368a1.22,1.22,0,0,1-.862.333,1.238,1.238,0,0,1-.868-.333,1.058,1.058,0,0,1-.36-.807,1.083,1.083,0,0,1,.36-.812,1.228,1.228,0,0,1,.868-.336,1.211,1.211,0,0,1,.862.336,1.073,1.073,0,0,1,.36.812A1.058,1.058,0,0,1,10.378,5.836Z" transform="translate(253.195 713.196)" fill="#4bbef7"/>
  </g>
</svg>
