<svg xmlns="http://www.w3.org/2000/svg" width="16" height="16.635" viewBox="0 0 16 16.635">
  <g id="surface1" transform="translate(-1 -0.063)">
    <path id="Path_140" data-name="Path 140" d="M8.995.063A4.65,4.65,0,0,0,4.352,4.705c0,4.079,4.213,9.615,4.393,9.848a.312.312,0,0,0,.5,0c.18-.237,4.393-5.862,4.393-9.848A4.65,4.65,0,0,0,8.995.063Zm0,2.977a2,2,0,1,1-2,2A2,2,0,0,1,8.995,3.04ZM5.9,11.388c-2.63.364-4.786,1.2-4.893,2.457a.356.356,0,0,0-.01.083c0,1.8,4.118,2.769,7.995,2.769,3.8,0,7.848-.933,7.995-2.665a.339.339,0,0,0,.01-.083c0-1.316-2.217-2.187-4.924-2.561a33.183,33.183,0,0,1-2.3,3.56.992.992,0,0,1-.781.4.978.978,0,0,1-.77-.385A31.6,31.6,0,0,1,5.9,11.388Z" fill="#4bbef7"/>
  </g>
</svg>
