<svg xmlns="http://www.w3.org/2000/svg" xmlns:xlink="http://www.w3.org/1999/xlink" width="16" height="16" viewBox="0 0 16 16">
  <defs>
    <clipPath id="clip-path">
      <rect id="Rectangle_18207" data-name="Rectangle 18207" width="16" height="16" rx="2" transform="translate(-797 13550)" fill="#f5f5ff" stroke="#707070" stroke-width="1"/>
    </clipPath>
  </defs>
  <g id="Mask_Group_316" data-name="Mask Group 316" transform="translate(797 -13550)" clip-path="url(#clip-path)">
    <path id="icons8_edit_message" d="M0,3.357v.889l6.928,6.031a1.649,1.649,0,0,0,1.066.434,1.649,1.649,0,0,0,1.066-.434l6.928-6.03V3.357ZM0,5.094v8.024L4.833,9.3Zm15.987,0L11.154,9.3l1.6,1.26L13.309,10a1.948,1.948,0,0,1,2.678-.073ZM5.324,9.729,0,13.933v.936H8.817l.121-.429.089-.089a1.111,1.111,0,0,1,.123-.155L12.3,11.019l-1.639-1.29L9.48,10.76a2.3,2.3,0,0,1-1.486.591,2.3,2.3,0,0,1-1.486-.592Zm9.365.343a1.307,1.307,0,0,0-.927.383l-.224.224L9.6,14.645c-.032.032-.064.1-.1.127L8.965,16.69a.394.394,0,0,0,.064.32.426.426,0,0,0,.256.1h.1l1.918-.511c.064,0,.1-.032.127-.1l4.061-4.029c.032-.032.064-.064.064-.1l.064-.064a1.311,1.311,0,0,0-.927-2.238Zm-.671,1.087.959.959-3.933,3.869-.927-.927v-.032Z" transform="translate(-797 13547.769)" fill="#f5f5ff"/>
  </g>
</svg>
