<svg xmlns="http://www.w3.org/2000/svg" xmlns:xlink="http://www.w3.org/1999/xlink" width="16" height="16" viewBox="0 0 16 16">
  <defs>
    <clipPath id="clip-path">
      <rect id="Rectangle_18208" data-name="Rectangle 18208" width="16" height="16" fill="#2bca7a"/>
    </clipPath>
  </defs>
  <g id="Mask_Group_317" data-name="Mask Group 317" clip-path="url(#clip-path)">
    <path id="icons8_call_1" d="M4.2,17.091a1.288,1.288,0,0,1-.761-.259c-.023-.017-2.348-1.719-2.348-2.651l0-.055c.108-2.2,1.77-4.922,4.94-8.092s5.891-4.831,8.091-4.94h.067c.952,0,2.624,2.325,2.641,2.348A1.111,1.111,0,0,1,16.716,5c-.254.192-2.942,1.952-3.27,2.148a1.266,1.266,0,0,1-1.266-.1c-.256-.139-1.053-.6-1.422-.808A17.507,17.507,0,0,0,8.365,8.359a20.055,20.055,0,0,0-2.122,2.4c.214.372.669,1.168.812,1.432a1.257,1.257,0,0,1,.08,1.267C6.95,13.768,5.158,16.49,5,16.714a.939.939,0,0,1-.675.369A1.044,1.044,0,0,1,4.2,17.091Z" transform="translate(-1.091 -1.091)" fill="#2bca7a"/>
  </g>
</svg>
