<svg xmlns="http://www.w3.org/2000/svg" xmlns:xlink="http://www.w3.org/1999/xlink" width="24" height="24" viewBox="0 0 24 24">
  <defs>
    <clipPath id="clip-path">
      <rect id="Rectangle_18155" data-name="Rectangle 18155" width="24" height="24" transform="translate(1655 554)" fill="#4bbef7" stroke="#707070" stroke-width="1"/>
    </clipPath>
  </defs>
  <g id="Mask_Group_302" data-name="Mask Group 302" transform="translate(-1655 -554)" clip-path="url(#clip-path)">
    <path id="icons8_search_3" d="M7.264.188a7.076,7.076,0,1,0,4.372,12.62l.631.631a1.329,1.329,0,0,0,.248,1.555l3.313,3.335a1.325,1.325,0,0,0,1.87,0l.631-.631a1.325,1.325,0,0,0,0-1.87l-3.335-3.313a1.312,1.312,0,0,0-1.555-.225l-.631-.631A7.074,7.074,0,0,0,7.264.188Zm0,1.307A5.769,5.769,0,1,1,1.495,7.264,5.769,5.769,0,0,1,7.264,1.495ZM3.613,5.438a3.947,3.947,0,0,0,3.358,6.017,3.989,3.989,0,0,0,2.276-.721,4.911,4.911,0,0,1-.541.023A5.081,5.081,0,0,1,3.613,5.664C3.613,5.587,3.61,5.514,3.613,5.438Z" transform="translate(1657.549 556.549)" fill="#4bbef7"/>
  </g>
</svg>
