<svg xmlns="http://www.w3.org/2000/svg" xmlns:xlink="http://www.w3.org/1999/xlink" width="16" height="16" viewBox="0 0 16 16">
  <defs>
    <clipPath id="clip-path">
      <rect id="Rectangle_17931" data-name="Rectangle 17931" width="16" height="16" fill="#8a8f93" stroke="#707070" stroke-width="1"/>
    </clipPath>
  </defs>
  <g id="Mask_Group_279" data-name="Mask Group 279" clip-path="url(#clip-path)">
    <path id="icons8_Surface" d="M4.395,2.1a.625.625,0,0,0-.436.192l-1.25,1.25a.625.625,0,0,0,0,.884l1.25,1.25a.625.625,0,1,0,.884-.884L4.659,4.6h6.568l-.183.183a.625.625,0,1,0,.884.884l1.25-1.25a.625.625,0,0,0,0-.884l-1.25-1.25a.625.625,0,1,0-.884.884l.183.183H4.659l.183-.183A.625.625,0,0,0,4.395,2.1ZM16.062,6.689a.625.625,0,0,0-.433.183l-1.25,1.25a.625.625,0,1,0,.884.884l.183-.183v6.985l-.183-.183a.625.625,0,1,0-.884.884l1.25,1.25a.625.625,0,0,0,.884,0l1.25-1.25a.625.625,0,1,0-.884-.884l-.183.183V8.823l.183.183a.625.625,0,1,0,.884-.884l-1.25-1.25a.625.625,0,0,0-.451-.183ZM4.817,7.106A2.3,2.3,0,0,0,2.525,9.4v5.835a2.3,2.3,0,0,0,2.292,2.292h5.835a2.3,2.3,0,0,0,2.292-2.292V9.4a2.3,2.3,0,0,0-2.292-2.292Z" transform="translate(-2.384 -2.171)" fill="#8a8f93"/>
  </g>
</svg>
