<svg xmlns="http://www.w3.org/2000/svg" xmlns:xlink="http://www.w3.org/1999/xlink" width="16" height="16" viewBox="0 0 16 16">
  <defs>
    <clipPath id="clip-path">
      <rect id="Rectangle_18341" data-name="Rectangle 18341" width="16" height="16" transform="translate(688 1029)" fill="#8a8f93" stroke="#707070" stroke-width="1"/>
    </clipPath>
  </defs>
  <g id="Mask_Group_532" data-name="Mask Group 532" transform="translate(-688 -1029)" clip-path="url(#clip-path)">
    <path id="icons8_twitter" d="M18.665,5.524a6.656,6.656,0,0,1-1.887.516,3.279,3.279,0,0,0,1.445-1.8,6.59,6.59,0,0,1-2.086.789,3.274,3.274,0,0,0-5.59,2.969,9.355,9.355,0,0,1-6.766-3.4,3.213,3.213,0,0,0-.444,1.638A3.246,3.246,0,0,0,4.8,8.941a3.342,3.342,0,0,1-1.488-.406v.038A3.263,3.263,0,0,0,5.94,11.764a3.264,3.264,0,0,1-.863.117,3.488,3.488,0,0,1-.619-.06,3.289,3.289,0,0,0,3.066,2.26,6.633,6.633,0,0,1-4.077,1.393,6.493,6.493,0,0,1-.783-.046A9.381,9.381,0,0,0,7.7,16.887a9.234,9.234,0,0,0,9.34-9.259c0-.141,0-.281-.011-.42a6.458,6.458,0,0,0,1.639-1.685" transform="translate(685.334 1026.557)" fill="#03a9f4"/>
  </g>
</svg>
