<svg xmlns="http://www.w3.org/2000/svg" xmlns:xlink="http://www.w3.org/1999/xlink" width="16" height="16" viewBox="0 0 16 16">
  <defs>
    <clipPath id="clip-path">
      <rect id="Rectangle_17796" data-name="Rectangle 17796" width="16" height="16" fill="#8080ff" stroke="#707070" stroke-width="1"/>
    </clipPath>
  </defs>
  <g id="Mask_Group_234" data-name="Mask Group 234" clip-path="url(#clip-path)">
    <path id="icons8_website_1" d="M8.7.7a8,8,0,1,0,8,8A8,8,0,0,0,8.7.7Zm0,.7a7.314,7.314,0,0,1,7,5.217h-.73a6.612,6.612,0,0,0-1.115-2.038,9.105,9.105,0,0,1-1.515.543A10.871,10.871,0,0,1,12.7,6.609h-.7a10.042,10.042,0,0,0-.333-1.336,14.7,14.7,0,0,1-2.615.284V6.609h-.7V5.557a14.7,14.7,0,0,1-2.614-.285A9.907,9.907,0,0,0,5.4,6.609H4.7A11.072,11.072,0,0,1,5.06,5.114a9.294,9.294,0,0,1-1.516-.543A6.653,6.653,0,0,0,2.429,6.609H1.7A7.317,7.317,0,0,1,8.7,1.391Zm-.348.731A2.44,2.44,0,0,0,7.1,2.841,5.489,5.489,0,0,0,5.977,4.614a14.139,14.139,0,0,0,2.371.247Zm.7,0V4.861a13.982,13.982,0,0,0,2.371-.249,5.477,5.477,0,0,0-1.139-1.787A2.446,2.446,0,0,0,9.043,2.122Zm-2.537.341A6.619,6.619,0,0,0,4.031,4.027a8.764,8.764,0,0,0,1.264.431A6.48,6.48,0,0,1,6.507,2.463Zm4.375,0A6.484,6.484,0,0,1,12.1,4.458a8.547,8.547,0,0,0,1.264-.431A6.608,6.608,0,0,0,10.882,2.463ZM1.391,7.3h.731l.533,1.912L3.3,7.3h.849l.618,1.944L5.31,7.3h.717L5.17,10.087H4.413l-.7-2.08-.7,2.08H2.235Zm4.986,0h.73L7.64,9.216,8.287,7.3h.848l.62,1.944L10.295,7.3h.719l-.857,2.783H9.4l-.7-2.08-.7,2.08H7.221Zm4.969,0h.734l.534,1.912L13.262,7.3h.852l.621,1.944L15.279,7.3H16l-.861,2.783H14.38l-.707-2.08-.705,2.08h-.776Zm.645,3.478h.7a11.072,11.072,0,0,1-.364,1.495,9.294,9.294,0,0,1,1.516.543,6.64,6.64,0,0,0,1.114-2.038h.73a7.3,7.3,0,0,1-13.993,0h.731a6.612,6.612,0,0,0,1.115,2.038,9.108,9.108,0,0,1,1.515-.543A10.872,10.872,0,0,1,4.7,10.783h.7a10.042,10.042,0,0,0,.333,1.336,14.7,14.7,0,0,1,2.615-.284V10.783h.7v1.052a14.694,14.694,0,0,1,2.614.285A9.909,9.909,0,0,0,11.992,10.783ZM8.348,12.53a13.976,13.976,0,0,0-2.359.247,3.8,3.8,0,0,0,2.359,2.49Zm.7,0v2.738a2.44,2.44,0,0,0,1.246-.719,5.467,5.467,0,0,0,1.125-1.772A14.139,14.139,0,0,0,9.043,12.53Zm3.053.4a6.48,6.48,0,0,1-1.212,1.995,6.619,6.619,0,0,0,2.476-1.564A8.764,8.764,0,0,0,12.1,12.933Zm-6.812,0a8.8,8.8,0,0,0-1.254.428A6.637,6.637,0,0,0,6.486,14.92,6.44,6.44,0,0,1,5.284,12.935Z" transform="translate(-0.696 -0.696)" fill="#8080ff"/>
  </g>
</svg>
